# Blender v2.83.3 OBJ File: 'drawtype.blend'
# www.blender.org
mtllib plantlike0.mtl
o plantlike0_Cylinder.001
v 0.347329 -0.500000 -0.359670
v 0.347329 0.500000 -0.359670
v -0.347329 0.500000 0.359670
v -0.347329 -0.500000 0.359670
v 0.359670 -0.500000 0.347329
v 0.359670 0.500000 0.347329
v -0.359670 0.500000 -0.347329
v -0.359670 -0.500000 -0.347329
vt 0.000000 0.000000
vt 0.000000 1.000000
vt 1.000000 1.000000
vt 1.000000 0.000000
vt 0.000000 0.000000
vt 0.000000 1.000000
vt 1.000000 1.000000
vt 1.000000 0.000000
vn 0.7193 -0.0000 0.6947
vn -0.6947 0.0000 0.7193
g plantlike0_Cylinder.001_grass
usemtl grass
s off
f 1/1/1 2/2/1 3/3/1 4/4/1
f 5/5/2 6/6/2 7/7/2 8/8/2
