# Blender v2.79 (sub 0) OBJ File: 'drawtype.blend'
# www.blender.org
o raillike_Plane
v -0.500000 -0.480469 0.500000
v 0.500000 -0.480469 0.500000
v -0.500000 -0.480469 -0.500000
v 0.500000 -0.480469 -0.500000
v -0.500000 0.519531 0.500000
v 0.500000 0.519531 0.500000
v -0.500000 -0.480469 -0.500000
v 0.500000 -0.480469 -0.500000
vt 0.000100 0.000100
vt 0.999900 0.000100
vt 0.999900 0.999900
vt 0.000100 0.999900
vt 1.000000 1.000000
vt 0.000000 1.000000
vt 0.000000 0.000000
vt 1.000000 0.000000
vn 0.0000 1.0000 0.0000
vn 0.0000 0.7071 -0.7071
g raillike_Plane_rail
s off
f 1/1/1 2/2/1 4/3/1 3/4/1
g raillike_Plane_rail_slope
f 5/5/2 6/6/2 8/7/2 7/8/2
